<?xml version="1.0" standalone="no"?>
<!DOCTYPE svg PUBLIC "-//W3C//DTD SVG 20010904//EN"
 "http://www.w3.org/TR/2001/REC-SVG-20010904/DTD/svg10.dtd">
<svg version="1.0" xmlns="http://www.w3.org/2000/svg"
 width="252.000000pt" height="252.000000pt" viewBox="0 0 252.000000 252.000000"
 preserveAspectRatio="xMidYMid meet">
<metadata>
Created by potrace 1.14, written by Peter Selinger 2001-2017
</metadata>
<g transform="translate(0.000000,252.000000) scale(0.100000,-0.100000)"
fill="#000000" stroke="none">
<path d="M1579 2493 c-66 -79 -242 -382 -261 -448 -6 -22 -12 -66 -13 -98 -3
-63 -13 -80 -57 -103 -16 -8 -37 -23 -47 -33 -27 -27 -61 -104 -59 -132 1 -14
-7 -41 -19 -60 -21 -33 -32 -75 -37 -136 -2 -15 -13 -52 -27 -81 l-23 -53 -51
7 c-57 7 -94 30 -115 70 -8 15 -25 38 -37 50 -13 13 -23 30 -23 38 0 8 -21 30
-47 47 -40 28 -54 32 -101 30 -73 -3 -80 -5 -136 -35 -27 -14 -58 -24 -70 -21
-11 3 -44 7 -73 9 -77 7 -75 -12 11 -82 26 -21 19 -74 -16 -123 -41 -57 -52
-121 -26 -154 25 -32 51 -39 85 -22 45 21 57 16 71 -33 7 -25 20 -57 28 -72 8
-14 14 -34 14 -43 0 -10 16 -33 35 -51 38 -36 58 -81 69 -156 4 -26 16 -57 26
-70 18 -23 18 -23 -5 -48 -15 -16 -25 -42 -29 -74 -3 -30 -23 -84 -50 -136
-33 -64 -45 -98 -44 -129 0 -22 -5 -48 -12 -57 -11 -12 -11 -18 2 -30 14 -14
14 -20 0 -55 -16 -42 -12 -52 26 -64 14 -4 22 -2 22 5 0 31 44 108 67 119 22
10 25 16 20 45 -4 26 4 54 37 122 23 49 49 104 57 122 15 35 36 42 45 15 4
-10 12 -32 20 -49 46 -104 74 -328 53 -418 -10 -43 -10 -51 5 -62 20 -14 102
-10 121 6 20 17 17 137 -5 180 -9 19 -16 43 -15 52 2 9 -6 49 -16 89 -10 40
-19 87 -19 105 0 40 45 94 78 94 14 0 40 13 58 30 32 28 35 29 71 16 34 -12
230 -30 294 -27 23 1 30 -6 48 -49 12 -27 31 -58 43 -69 l21 -20 -23 -62 c-23
-61 -101 -179 -119 -179 -5 0 -13 -15 -17 -32 -3 -18 -12 -37 -20 -43 -7 -5
-15 -27 -18 -47 -5 -33 -3 -38 17 -43 27 -7 62 -2 100 16 24 11 28 18 25 41
-3 16 1 33 9 39 7 6 18 29 23 51 11 40 100 178 150 233 37 40 53 72 40 80 -5
3 -10 24 -10 46 l0 40 58 -45 c31 -25 70 -55 86 -67 28 -22 28 -23 22 -98 -10
-123 -15 -144 -36 -173 -11 -15 -22 -46 -24 -69 -3 -23 -9 -45 -14 -48 -6 -3
-13 -18 -17 -32 -5 -20 -1 -28 19 -38 28 -15 111 -7 123 12 7 11 12 51 18 149
2 31 15 97 29 146 34 117 39 162 21 188 -13 20 -11 28 19 89 l34 66 17 -50
c20 -60 46 -74 75 -39 15 17 18 31 13 53 -13 51 0 175 17 175 5 0 5 12 1 28
-5 15 -7 49 -5 76 4 50 -9 97 -46 176 -26 53 -124 149 -160 156 -14 3 -50 11
-80 19 -122 31 -206 42 -282 35 -32 -3 -122 -5 -200 -4 -116 0 -152 4 -193 20
-27 10 -51 19 -53 20 -1 0 5 14 13 30 11 24 12 38 4 68 -14 52 -3 61 74 61 52
-1 78 -8 163 -48 109 -50 187 -68 245 -55 30 6 130 46 162 65 5 3 4 -4 -2 -15
-14 -26 4 -72 28 -73 41 -2 68 -12 91 -34 25 -23 80 -50 80 -38 0 3 -11 16
-25 29 -14 13 -25 32 -25 43 0 11 -15 32 -34 48 -33 26 -34 28 -15 41 10 7 19
21 19 31 0 10 9 26 20 36 11 10 20 26 20 35 0 33 -25 42 -97 35 l-68 -7 83 41
c99 49 116 52 101 17 -23 -51 4 -85 67 -86 12 0 35 -13 50 -29 16 -16 43 -33
59 -37 l30 -7 -22 20 c-12 10 -29 38 -38 61 -10 23 -20 42 -24 42 -4 0 -15 6
-26 13 -17 14 -17 15 2 34 14 14 21 34 21 62 1 60 -15 65 -193 68 -181 2 -205
6 -271 44 -79 45 -133 60 -211 61 -40 0 -73 4 -73 8 0 4 8 18 19 31 30 39 49
83 91 207 49 142 113 363 107 368 -2 2 -10 -4 -18 -13z m-25 -105 c-8 -24 -37
-113 -64 -198 -55 -170 -81 -228 -115 -260 l-23 -22 -21 21 c-12 12 -19 27
-15 32 4 8 9 7 14 -1 5 -8 9 -7 13 4 4 9 1 15 -6 13 -18 -3 -15 46 3 50 13 4
13 3 0 -6 -17 -12 -10 -14 15 -4 15 5 14 8 -6 19 -13 7 -18 13 -11 14 7 0 10
5 7 10 -9 15 14 40 36 40 10 0 20 4 23 9 3 4 -7 6 -22 4 l-27 -4 30 15 c22 12
24 14 7 10 -21 -5 -22 -4 -10 15 7 12 14 17 16 11 2 -5 10 -10 19 -10 12 0 11
3 -3 18 -15 15 -16 17 -2 20 10 2 14 10 11 23 -4 15 0 22 17 26 17 4 19 8 8
15 -9 7 -5 8 12 4 24 -5 24 -4 6 9 -11 8 -14 15 -8 15 7 0 12 7 12 15 0 8 5
15 10 15 6 0 10 6 10 14 0 7 11 25 24 39 13 14 21 28 18 31 -3 3 0 6 6 6 7 0
11 3 11 8 -3 14 1 22 11 22 5 0 2 -19 -6 -42z m-114 -521 c0 15 40 8 51 -8 8
-12 13 -6 11 12 -1 4 8 4 20 1 l21 -5 -21 -16 c-23 -17 -17 -38 10 -38 14 0
15 4 6 20 -9 17 -8 19 6 14 10 -4 15 -3 11 3 -14 23 40 3 117 -43 41 -25 46
-31 38 -48 -8 -15 -7 -17 4 -13 9 3 14 11 13 17 -1 6 12 12 30 12 18 1 30 -2
27 -6 -2 -4 3 -10 12 -13 8 -3 12 -2 9 4 -3 6 1 10 10 10 11 0 15 -5 12 -14
-4 -10 0 -12 15 -8 14 3 16 7 7 13 -7 4 7 7 34 6 36 -1 48 -5 53 -19 3 -11 10
-15 17 -11 19 12 37 12 37 1 0 -6 7 -8 14 -5 11 4 13 1 10 -11 -5 -14 -4 -15
5 -2 9 13 11 12 11 -6 0 -11 -6 -21 -12 -21 -7 0 -57 -21 -111 -48 -61 -30
-112 -48 -136 -49 -32 0 -36 -3 -22 -12 21 -16 203 -16 194 0 -3 6 0 5 7 -1
22 -21 20 -43 -6 -59 -13 -9 -21 -20 -18 -25 3 -5 1 -9 -4 -9 -6 0 -12 7 -16
15 -3 9 0 15 9 15 8 0 15 4 15 9 0 5 -9 7 -20 4 -11 -3 -20 -11 -20 -18 0 -8
-8 -11 -20 -8 -11 3 -20 0 -20 -6 0 -6 -19 -20 -42 -32 -36 -18 -45 -19 -62
-9 -19 12 -20 11 -8 -3 18 -21 7 -27 -85 -44 -22 -4 -41 0 -58 11 -18 12 -23
12 -19 3 7 -19 -20 -15 -94 12 -35 13 -67 32 -73 42 -14 26 -46 42 -55 27 -4
-7 -3 -8 4 -4 7 4 12 2 12 -4 0 -12 -38 -4 -55 12 -6 6 -4 7 7 3 11 -4 24 0
35 11 17 17 17 18 -2 10 -11 -4 -24 -9 -30 -10 -5 -1 -16 -6 -24 -10 -10 -6
-12 -5 -7 2 5 8 0 12 -13 12 -12 0 -21 -6 -21 -12 0 -10 -2 -10 -9 0 -4 7 -12
12 -17 11 -21 -4 -26 2 -13 17 8 9 14 22 15 28 0 6 4 26 9 44 6 25 10 30 17
20 7 -10 8 -8 7 7 -3 36 1 45 19 45 14 0 15 2 2 10 -14 9 -7 15 14 11 5 -1 3
6 -5 15 -13 16 -12 17 5 11 16 -6 17 -5 6 8 -8 9 -9 15 -2 15 6 0 16 -8 21
-17 6 -10 11 -13 11 -6 0 6 -6 18 -14 26 -13 12 -12 16 8 25 17 8 27 7 37 -1
7 -7 5 -2 -5 10 -18 21 -15 43 6 43 7 0 6 -6 -2 -15 -7 -9 -8 -15 -2 -15 14 0
23 28 12 35 -16 10 -11 23 8 20 9 -1 17 -9 16 -17 -1 -8 5 -15 12 -15 9 0 10
5 3 18 -13 26 -11 33 6 19 8 -7 15 -8 15 -3z m-128 -30 c-12 -13 -22 -29 -22
-35 0 -7 -7 -15 -15 -18 -8 -4 -15 -11 -15 -18 0 -6 -16 -27 -35 -47 -19 -20
-33 -38 -31 -40 2 -2 -6 -13 -17 -24 l-20 -20 11 21 c6 12 9 34 6 50 -3 21 -2
25 5 14 5 -8 7 -19 4 -25 -4 -5 -2 -6 3 -2 5 5 9 12 9 15 0 4 4 12 8 19 4 6 2
15 -4 19 -8 5 -9 3 -4 -6 5 -9 4 -11 -4 -6 -15 10 -3 29 15 22 8 -3 13 -2 12
2 -3 11 22 53 30 49 4 -2 18 8 32 24 14 15 31 28 39 28 10 1 8 -6 -7 -22z
m218 -7 c0 -5 -2 -10 -4 -10 -3 0 -8 5 -11 10 -3 6 -1 10 4 10 6 0 11 -4 11
-10z m460 -60 c3 -1 8 -2 13 -1 4 0 7 -6 7 -15 0 -12 -4 -14 -12 -6 -7 5 -22
8 -34 6 -12 -2 -21 2 -21 10 0 10 27 14 47 6z m97 -12 c17 -2 25 -26 11 -34
-7 -5 -8 -2 -3 6 6 10 3 12 -13 8 -12 -4 -20 -2 -16 3 3 5 -1 9 -9 9 -10 0
-13 -7 -10 -20 3 -11 9 -17 14 -14 5 3 9 0 9 -5 0 -21 -20 -10 -35 19 -20 38
-20 38 13 33 15 -2 32 -5 39 -5z m-844 -80 c-4 -7 -8 -19 -9 -26 -2 -8 -5 -16
-8 -19 -7 -8 -26 7 -26 20 0 7 4 6 10 -3 5 -8 10 -12 11 -7 1 4 3 12 4 17 1 6
3 15 4 20 0 6 6 10 12 10 6 0 7 -5 2 -12z m841 -19 c-14 -15 -20 -16 -38 -7
-21 12 -21 12 4 18 44 11 52 8 34 -11z m-39 -19 c3 -6 3 -20 0 -31 -6 -18 -9
-19 -21 -7 -8 8 -12 22 -8 31 7 19 20 22 29 7z m-831 -32 c5 4 1 -11 -9 -33
-9 -22 -28 -68 -42 -102 -14 -35 -29 -61 -34 -58 -4 3 -6 12 -2 20 4 11 1 13
-11 9 -9 -3 -16 -2 -16 4 0 6 8 9 18 8 23 -4 62 71 50 97 -5 10 -4 24 2 35 9
15 10 14 5 -5 -4 -13 -2 -23 3 -23 15 0 21 37 8 51 -9 11 -8 11 5 1 9 -6 19
-8 23 -4z m-77 -26 c-10 -10 -17 -26 -17 -35 0 -9 -4 -18 -9 -22 -14 -8 4 51
21 69 7 7 15 12 17 10 2 -2 -3 -12 -12 -22z m969 19 c-3 -5 3 -11 13 -14 10
-2 23 -20 29 -38 11 -31 10 -32 -3 -14 -27 38 -36 45 -46 40 -5 -4 -9 -1 -9 5
0 6 -4 8 -10 5 -5 -3 -10 -2 -10 4 0 5 8 12 18 14 9 3 18 5 20 6 2 0 1 -3 -2
-8z m-1436 -34 c0 -4 8 -4 17 2 24 13 90 -24 109 -60 12 -23 11 -28 -1 -33 -9
-3 -12 -12 -8 -22 6 -15 7 -16 18 -1 7 9 15 14 18 10 4 -3 1 -13 -5 -22 -10
-13 -10 -14 2 -3 8 6 18 12 22 12 4 0 8 -6 8 -12 0 -7 15 -30 33 -51 26 -30
40 -38 75 -42 47 -5 62 -11 62 -26 0 -6 -5 -7 -12 -3 -6 4 -8 3 -5 -3 4 -6 0
-28 -9 -48 -15 -37 -15 -37 -37 -19 l-22 19 18 -22 c18 -21 15 -49 -4 -38 -5
4 -9 2 -9 -4 0 -6 -7 -8 -16 -4 -13 5 -14 0 -8 -33 3 -22 3 -36 -1 -31 -5 4
-19 0 -32 -8 -13 -9 -23 -11 -23 -6 0 5 6 12 13 15 6 4 2 4 -10 2 -13 -2 -26
1 -30 6 -3 7 -1 8 5 4 7 -4 12 -2 12 4 0 6 5 8 10 5 6 -3 10 1 10 10 0 12 -4
13 -18 6 -11 -6 -24 -6 -35 0 -9 6 -22 7 -29 3 -7 -5 -9 -2 -5 9 3 9 -1 21
-11 28 -14 11 -15 11 -5 0 13 -15 6 -44 -8 -35 -5 3 -9 1 -9 -5 0 -16 18 -22
24 -9 3 7 4 4 3 -7 -2 -11 -8 -19 -14 -18 -6 1 -10 -8 -9 -22 3 -21 1 -23 -15
-14 -11 5 -19 12 -19 15 0 3 5 2 10 -1 6 -3 10 -2 10 2 0 5 -10 14 -22 22 -20
12 -21 12 -12 0 11 -14 11 -45 0 -57 -3 -3 -6 1 -7 9 -1 8 -4 3 -8 -11 -5 -16
-13 -24 -24 -22 -11 2 -15 -2 -11 -13 3 -8 2 -15 -4 -15 -6 0 -9 8 -8 18 2 9
-1 20 -6 23 -5 3 -2 19 7 35 15 28 14 30 -10 51 -24 21 -24 22 -5 28 11 4 20
10 20 14 0 5 11 9 25 9 18 0 27 -7 31 -24 3 -13 13 -29 22 -36 15 -12 16 -11
2 6 -13 16 -12 20 5 32 10 8 16 14 12 14 -4 0 0 14 8 30 9 17 13 36 9 42 -4 7
-3 8 4 4 8 -5 12 2 12 18 0 18 4 24 14 20 9 -3 17 3 21 15 7 24 -1 41 -18 40
-9 0 -9 -2 0 -6 19 -7 -7 -29 -34 -29 -27 0 -34 14 -21 41 8 18 8 18 4 -2 -3
-18 0 -23 17 -22 12 0 16 3 9 6 -6 2 -10 9 -7 14 3 5 0 19 -7 31 -15 29 -21
61 -9 54 5 -3 14 0 20 8 8 10 7 22 -4 47 -8 19 -14 30 -15 24 0 -5 -4 -4 -9 4
-12 18 -61 22 -54 4 3 -7 10 -13 16 -13 6 0 8 -2 5 -5 -9 -10 -38 7 -38 22 0
9 -6 13 -15 10 -8 -4 -17 -1 -21 4 -4 7 -10 7 -16 1 -6 -6 -17 -8 -26 -4 -13
5 -12 7 4 13 24 9 74 6 74 -4z m-66 -23 c34 8 56 -13 49 -47 l-6 -28 -18 28
c-18 26 -69 44 -69 23 0 -5 11 -7 24 -4 24 4 37 -11 41 -49 1 -15 -4 -18 -22
-14 -13 2 -23 -1 -23 -7 0 -6 -4 -4 -10 4 -6 9 -5 17 3 22 13 9 13 9 -25 14
-15 1 -31 -2 -34 -8 -5 -7 -1 -9 9 -5 10 3 17 2 17 -3 0 -6 -4 -10 -9 -10 -4
0 -6 -11 -3 -25 3 -21 7 -23 23 -14 29 15 23 -3 -11 -33 -31 -27 -44 -24 -35
9 3 10 -1 5 -9 -12 -8 -16 -17 -29 -20 -27 -3 1 -12 2 -18 1 -10 0 -10 -2 0
-6 10 -4 9 -9 -5 -20 -14 -12 -12 -12 9 1 17 10 29 12 33 6 3 -6 11 -10 18
-10 6 0 2 7 -9 16 -18 15 -18 15 4 9 15 -5 22 -2 22 8 0 8 13 17 30 20 23 5
28 11 24 24 -4 13 -3 14 3 5 5 -7 17 -10 25 -7 9 4 19 2 23 -4 3 -6 1 -12 -4
-12 -6 -1 -15 -3 -21 -4 -5 -1 -13 -3 -16 -4 -4 0 -2 -7 3 -13 6 -7 9 -21 8
-30 -2 -10 2 -21 7 -25 6 -3 8 -1 5 4 -9 14 27 23 44 12 12 -8 11 -11 -1 -19
-8 -5 -20 -8 -26 -6 -6 2 -17 0 -25 -4 -8 -6 -16 -4 -21 3 -6 9 -8 9 -8 0 0
-17 -33 -50 -59 -58 -23 -7 -28 4 -9 23 9 9 9 15 -1 25 -10 10 -11 8 -5 -8 7
-20 7 -20 -14 -1 -32 28 -30 -3 3 -38 30 -33 48 -33 69 -1 9 14 23 25 30 25 8
0 16 6 19 13 2 6 7 9 11 6 9 -8 -4 -40 -14 -34 -4 2 -16 -2 -26 -10 -11 -8
-14 -14 -6 -15 6 0 12 -4 12 -8 0 -5 -24 -8 -52 -7 -34 0 -60 -5 -72 -15 -14
-10 -17 -11 -11 -1 6 10 1 12 -26 6 -19 -4 -38 -8 -44 -9 -5 0 -9 8 -9 19 0
13 5 19 16 17 18 -3 32 13 23 27 -3 6 -17 6 -35 1 -29 -8 -29 -8 -18 13 7 12
11 28 10 35 -2 6 1 12 7 12 5 0 12 -6 15 -12 3 -7 3 -3 0 10 -3 12 -1 22 4 22
5 0 18 21 28 47 26 64 27 70 15 53 -9 -13 -11 -13 -11 3 0 23 4 32 12 30 4 -2
5 3 2 10 -3 9 15 23 50 40 30 15 58 32 62 38 5 8 10 6 16 -6 7 -11 17 -15 32
-11z m560 -3 c3 -5 -1 -11 -9 -14 -9 -4 -12 -1 -8 9 6 16 10 17 17 5z m-409
-69 c-6 -6 -35 18 -35 29 0 5 9 1 20 -8 11 -9 17 -19 15 -21z m383 18 c-7 -11
-16 -20 -20 -20 -5 0 -3 9 4 20 7 11 16 20 20 20 5 0 3 -9 -4 -20z m736 -41
c-3 -5 -10 -7 -15 -3 -5 3 -7 10 -3 15 3 5 10 7 15 3 5 -3 7 -10 3 -15z m33
-49 c-1 -22 -5 -24 -27 -10 -12 8 -12 10 3 16 9 3 14 11 10 17 -3 6 -1 7 5 3
6 -3 10 -15 9 -26z m33 -6 c0 5 7 3 15 -4 8 -7 12 -16 9 -22 -3 -5 0 -15 6
-23 7 -8 8 -15 3 -15 -5 0 -15 12 -21 26 -7 15 -17 22 -24 18 -7 -4 -8 -3 -4
4 4 7 2 12 -4 12 -6 0 -8 5 -4 11 4 8 9 7 15 -2 5 -8 9 -10 9 -5z m-813 -12
c-2 -4 -13 -28 -25 -54 -22 -47 -35 -58 -47 -38 -3 6 1 13 9 16 9 3 13 10 10
15 -3 5 0 9 6 9 6 0 9 4 6 9 -3 5 1 12 9 15 8 3 15 9 14 13 -3 20 2 34 11 28
6 -4 9 -9 7 -13z m-457 -24 c0 -19 -16 -5 -17 14 -2 18 0 20 7 8 5 -8 10 -18
10 -22z m488 7 c-6 -14 -15 -25 -20 -25 -9 0 -4 14 15 38 15 19 18 14 5 -13z
m-431 -47 c-3 -8 -6 -5 -6 6 -1 11 2 17 5 13 3 -3 4 -12 1 -19z m11 -73 c-1
-26 -7 -35 -20 -35 -22 0 -24 16 -3 24 8 3 15 12 15 21 0 9 -7 18 -15 21 -8 4
-15 15 -15 25 0 18 1 18 20 -1 14 -14 20 -31 18 -55z m459 63 c14 3 23 1 20
-4 -3 -5 6 -10 20 -11 14 0 28 -5 32 -11 7 -10 343 -8 360 3 6 3 11 1 11 -5 0
-6 5 -8 12 -4 18 11 70 11 98 1 14 -6 36 -9 49 -8 13 2 21 -2 17 -7 -3 -5 1
-12 9 -15 9 -4 12 -1 9 8 -5 11 4 11 45 -2 43 -14 49 -19 38 -32 -11 -14 -10
-14 7 -1 24 19 56 14 76 -10 8 -10 31 -28 50 -39 19 -12 31 -21 26 -21 -6 0 0
-10 13 -21 16 -15 20 -24 12 -32 -14 -14 -14 -27 0 -27 5 0 7 5 4 10 -3 6 -2
10 3 10 10 0 24 -41 17 -48 -2 -2 -14 2 -27 9 -21 11 -22 11 -9 -4 12 -15 11
-17 -3 -17 -10 0 -15 -4 -12 -8 3 -5 -3 -18 -14 -29 -10 -11 -15 -24 -10 -29
12 -14 24 -81 12 -69 -6 6 -12 21 -14 34 -3 23 -4 23 -19 9 -10 -10 -20 -13
-25 -8 -5 5 -15 5 -24 -1 -13 -9 -12 -10 2 -5 13 4 17 0 15 -16 -3 -32 18 -32
29 -1 l10 28 5 -32 c3 -18 2 -30 -3 -27 -4 3 -8 1 -8 -3 0 -5 -11 -10 -25 -11
-19 -1 -23 2 -19 16 5 13 4 14 -4 3 -7 -9 -12 -10 -16 -2 -4 6 -13 11 -19 11
-7 0 -3 -7 7 -15 19 -15 19 -15 -1 -37 -20 -22 -20 -24 -3 -41 12 -12 20 -15
25 -8 9 15 42 14 48 -1 2 -7 8 -10 12 -6 16 15 -15 37 -39 28 -27 -10 -52 2
-41 20 6 9 10 9 17 -1 8 -11 9 -10 4 4 -3 9 -1 17 3 17 5 0 11 -4 13 -10 2 -5
15 -11 30 -12 25 -2 26 -5 22 -43 -3 -22 -6 -58 -7 -80 -3 -35 -55 -156 -57
-130 0 6 -4 4 -9 -4 -5 -8 -11 -9 -15 -3 -3 6 3 13 14 17 23 7 27 35 5 35 -7
0 -19 8 -25 18 -10 15 -10 15 -5 -4 3 -14 1 -21 -8 -21 -10 0 -14 14 -13 48 1
26 4 51 9 55 4 4 7 0 7 -8 0 -9 7 -21 15 -28 8 -7 12 -16 9 -21 -3 -5 2 -9 10
-9 9 0 16 -5 16 -11 0 -5 5 -7 10 -4 8 5 7 11 -1 21 -9 11 -7 14 10 14 11 0
21 5 21 10 0 6 -9 10 -20 10 -11 0 -20 7 -20 15 0 8 5 15 10 15 6 0 10 -5 10
-11 0 -5 5 -7 11 -4 7 5 3 14 -10 26 -12 11 -21 30 -21 41 0 17 -3 19 -12 10
-10 -10 -10 -17 0 -32 15 -24 15 -33 2 -25 -7 4 -7 -3 0 -19 5 -14 7 -26 5
-26 -15 0 -20 3 -17 12 2 6 -5 19 -14 29 -17 19 -18 18 -33 -3 -14 -21 -24
-103 -14 -121 3 -4 11 -3 18 3 9 8 14 7 18 -4 6 -16 -16 -40 -26 -29 -4 3 -7
2 -7 -4 0 -19 13 -22 26 -5 8 10 13 12 14 5 0 -7 6 -13 14 -13 17 0 17 -50 1
-62 -6 -4 -2 -13 10 -23 16 -12 16 -14 3 -9 -21 7 -39 -31 -28 -60 3 -11 0
-44 -8 -75 -8 -31 -15 -84 -15 -118 0 -35 -4 -63 -9 -63 -5 0 -7 -4 -3 -9 6
-11 -32 -41 -52 -41 -20 0 -11 79 11 95 9 7 17 15 16 17 -1 1 3 23 10 48 7 24
14 71 16 105 2 33 9 62 14 63 7 3 7 9 -1 18 -9 11 -8 18 2 31 10 11 10 14 2 9
-9 -5 -12 0 -10 15 1 12 -4 24 -11 26 -8 3 -10 -1 -5 -14 5 -14 1 -13 -19 6
-24 23 -28 51 -7 51 13 0 11 -18 -3 -23 -7 -3 -3 -6 10 -6 22 -1 30 13 12 24
-5 3 -7 13 -4 23 4 10 2 13 -3 7 -16 -19 -31 -15 -26 8 4 18 3 19 -7 7 -9 -13
-11 -12 -9 5 3 46 -1 56 -20 50 -14 -4 -25 3 -41 25 -12 16 -27 30 -33 30 -14
1 -75 60 -61 60 6 0 15 -5 21 -11 8 -8 11 0 10 30 -1 23 -6 39 -12 37 -5 -2
-9 -9 -7 -15 3 -17 -16 -13 -28 7 -8 11 -10 12 -7 2 6 -23 -28 -51 -43 -36
-10 8 -11 8 -5 -3 6 -10 4 -12 -4 -7 -7 5 -10 15 -6 23 4 13 3 13 -9 4 -11 -9
-15 -8 -20 4 -3 9 1 18 9 21 8 4 15 11 15 17 0 6 -13 -2 -29 -17 -19 -18 -27
-34 -24 -47 8 -28 -19 -24 -59 8 -21 18 -28 21 -18 8 23 -30 40 -47 40 -39 0
3 7 1 15 -6 8 -7 13 -15 11 -19 -3 -4 4 -8 15 -8 11 -1 17 2 14 7 -6 9 21 28
40 28 6 0 16 -4 22 -10 9 -7 15 -6 19 6 3 9 10 13 15 10 14 -8 11 -26 -3 -19
-7 4 -5 0 6 -9 10 -8 19 -27 19 -41 0 -14 4 -25 9 -25 6 0 8 -7 4 -15 -3 -8
-1 -15 4 -15 6 0 10 -4 10 -9 0 -5 -14 -3 -30 6 -17 8 -28 18 -25 23 3 5 -7 6
-22 3 -16 -3 -35 -6 -43 -7 -8 -1 -36 -12 -63 -24 -50 -24 -105 -29 -197 -18
-105 12 -134 16 -139 23 -3 3 4 3 17 0 33 -8 27 7 -9 20 -26 10 -30 10 -25 -2
4 -11 0 -12 -18 -5 -15 5 -27 5 -35 -3 -6 -6 -14 -8 -18 -4 -10 11 4 19 32 20
14 0 25 5 25 12 0 7 -8 12 -17 11 -10 -2 -22 2 -26 8 -6 7 -7 6 -4 -4 5 -19
-37 -52 -57 -44 -9 3 -14 10 -11 14 3 4 -2 13 -10 20 -10 9 -15 9 -15 1 0 -6
5 -11 12 -11 6 0 8 -3 5 -7 -4 -3 -2 -12 3 -18 13 -16 -24 -50 -42 -39 -17 11
-58 12 -52 2 3 -4 -12 -6 -33 -4 -21 3 -44 5 -51 5 -7 1 -11 5 -8 9 2 4 -6 8
-20 8 -13 0 -24 -3 -24 -6 0 -3 -18 -4 -40 -2 -28 3 -47 -2 -70 -18 -16 -12
-30 -25 -30 -30 0 -5 -10 -30 -22 -57 -12 -26 -22 -50 -23 -53 -1 -3 -7 -18
-13 -33 -7 -16 -12 -34 -12 -41 0 -13 -33 -56 -43 -56 -14 0 5 72 34 125 18
33 38 71 46 85 7 14 13 35 13 46 0 46 14 85 33 96 11 6 50 12 86 13 36 2 87 7
113 13 32 6 45 6 41 -1 -3 -5 0 -7 8 -5 8 3 13 10 12 16 -2 7 4 9 14 5 12 -5
14 -3 8 7 -5 9 -4 11 3 6 11 -6 17 12 13 37 -2 11 14 8 27 -5 9 -9 12 -9 12
-1 0 7 -9 18 -20 26 -11 8 -17 17 -13 21 14 13 12 38 -3 32 -8 -3 -14 -1 -14
4 0 6 5 11 10 11 6 1 15 2 22 3 15 1 22 23 9 31 -7 4 -8 -1 -4 -12 6 -15 4
-16 -9 -5 -13 10 -17 10 -20 0 -3 -8 -7 -6 -11 6 -4 9 -3 15 2 12 5 -3 8 15 6
39 -1 25 2 48 7 51 5 3 7 13 4 21 -5 11 0 13 17 8 l22 -6 -21 13 c-19 11 -20
15 -8 26 8 7 11 18 8 24 -4 6 -3 8 3 5 6 -4 16 0 23 8 7 8 16 12 22 9 5 -3 4
-13 -4 -22 -11 -13 -11 -15 3 -10 9 4 16 1 16 -8 0 -7 -4 -11 -9 -8 -4 3 -8 0
-8 -5 0 -6 5 -11 11 -11 5 0 7 -6 3 -12 -5 -9 -2 -9 9 1 10 8 17 9 17 3 0 -6
-8 -16 -17 -22 -17 -11 -17 -11 -1 -6 10 3 20 1 23 -4 3 -5 -3 -11 -12 -14
-10 -3 -7 -4 7 -3 15 2 24 8 22 15 -1 8 2 11 8 7 5 -3 10 -1 10 4 0 6 -4 11
-10 11 -5 0 -7 6 -4 13 3 8 0 25 -5 39 -7 18 -6 29 2 37 8 8 5 11 -12 11 -14
0 -20 4 -15 12 5 8 0 9 -14 6 -12 -4 -20 -2 -16 3 3 5 12 9 20 9 8 0 13 4 10
9 -3 5 1 14 9 21 12 10 15 7 21 -14 3 -14 10 -26 15 -26 13 0 11 7 -6 34 -14
21 -14 27 -1 52 9 16 18 47 22 69 4 22 8 35 11 29 2 -6 15 -9 30 -6z m-541
-36 c-21 -41 -42 -57 -50 -37 -3 9 -2 14 3 11 4 -3 18 8 30 24 27 38 36 39 17
2z m457 -32 c-3 -11 -14 -22 -25 -26 -11 -3 -17 -8 -14 -11 3 -3 -7 -17 -22
-31 -15 -13 -21 -21 -14 -18 6 4 12 5 12 2 0 -6 -83 -56 -93 -56 -4 0 -7 5 -7
11 0 5 6 7 13 3 9 -5 9 -4 1 5 -9 10 -9 19 2 39 16 31 75 95 81 88 3 -2 14 5
25 16 23 23 49 9 41 -22z m-403 17 c0 -8 -9 -22 -20 -32 -11 -10 -20 -13 -20
-8 0 6 7 16 15 23 8 7 12 16 9 21 -3 5 0 9 5 9 6 0 11 -6 11 -13z m230 -92 c0
-8 -2 -15 -4 -15 -2 0 -6 7 -10 15 -3 8 -1 15 4 15 6 0 10 -7 10 -15z m-370
-17 c-18 -7 -21 -11 -11 -21 9 -9 14 -9 21 3 5 8 10 10 10 4 0 -6 -9 -19 -20
-29 -11 -10 -17 -22 -13 -28 3 -6 1 -7 -6 -3 -9 6 -9 11 0 22 6 8 7 14 2 14
-12 0 -13 32 -1 47 5 6 17 9 25 6 13 -5 12 -8 -7 -15z m235 12 c3 -5 1 -10 -4
-10 -6 0 -11 5 -11 10 0 6 2 10 4 10 3 0 8 -4 11 -10z m-275 -10 c0 -5 -2 -10
-4 -10 -3 0 -8 5 -11 10 -3 6 -1 10 4 10 6 0 11 -4 11 -10z m87 -10 c-2 -11
-9 -26 -15 -32 -10 -10 -10 -6 -1 20 12 36 20 42 16 12z m193 -3 c0 -2 -10
-12 -21 -23 -22 -19 -22 -19 -8 4 12 19 29 30 29 19z m-182 -73 c1 -29 -1 -43
-8 -39 -9 5 -15 -24 -11 -49 1 -5 -5 -3 -14 4 -9 8 -13 21 -10 34 5 15 4 17
-3 7 -10 -13 -14 -10 -26 23 -5 14 -2 17 10 12 10 -4 14 -1 11 6 -2 7 8 21 22
30 14 9 26 17 26 17 0 1 1 -20 3 -45z m222 25 c0 -6 -5 -7 -12 -3 -8 5 -9 2
-5 -9 8 -23 0 -22 -12 1 -8 14 -6 18 10 19 10 1 19 -3 19 -8z m128 -36 c-13
-27 -24 -50 -25 -52 -1 -1 -6 0 -12 4 -7 4 -5 14 5 31 9 13 12 24 8 24 -7 0
35 39 43 40 2 0 -7 -21 -19 -47z m-207 14 c-10 -9 -11 -8 -5 6 3 10 9 15 12
12 3 -3 0 -11 -7 -18z m124 -7 c3 -6 -1 -7 -9 -4 -18 7 -21 14 -7 14 6 0 13
-4 16 -10z m219 -6 c9 -24 2 -26 -12 -4 -7 11 -8 20 -3 20 5 0 12 -7 15 -16z
m-294 -11 c0 -10 -4 -14 -8 -8 -4 6 -11 13 -16 18 -5 4 -2 7 7 7 10 0 17 -8
17 -17z m-90 -36 c0 -20 0 -20 15 -1 14 17 15 18 9 0 -4 -10 -1 -22 7 -28 11
-8 10 -9 -3 -4 -10 3 -20 1 -23 -5 -4 -5 -10 -7 -14 -5 -4 3 -13 -4 -20 -16
-7 -11 -8 -18 -3 -14 5 3 15 -6 22 -19 7 -13 17 -22 22 -19 4 3 8 0 8 -7 0 -7
-10 -9 -26 -6 l-26 5 26 -23 c27 -23 26 -38 -2 -28 -10 4 -13 2 -8 -5 4 -7 21
-10 39 -8 18 3 26 3 20 0 -20 -9 -15 -24 5 -18 9 3 4 -2 -12 -12 -24 -14 -27
-18 -14 -25 19 -10 13 -49 -7 -49 -29 0 -56 36 -61 80 -6 53 -22 110 -37 129
-18 22 -21 65 -4 58 9 -3 19 5 27 21 7 16 15 22 17 15 7 -18 23 -16 23 3 0 8
5 12 10 9 6 -3 10 -16 10 -28z m139 18 c7 3 8 0 5 -9 -8 -20 -7 -20 -30 6 -14
17 -15 20 -2 9 9 -7 22 -10 27 -6z m1277 3 c-11 -34 -15 -109 -6 -103 6 4 7
-6 4 -25 -5 -23 -3 -29 7 -27 8 2 10 2 6 -1 -4 -2 -3 -9 2 -16 6 -8 6 -17 -1
-26 -8 -12 -9 -12 -4 2 3 11 -4 24 -20 37 -13 11 -20 22 -15 25 5 3 7 15 4 26
-5 19 -6 19 -19 -6 -8 -14 -12 -30 -9 -34 3 -5 0 -12 -6 -16 -12 -7 -11 2 3
67 2 8 -2 13 -7 12 -6 -1 -12 7 -12 18 -1 10 2 19 8 19 5 0 9 7 9 15 0 8 7 15
16 15 8 0 13 4 10 9 -4 5 0 12 6 14 22 9 28 7 24 -5z m-1211 -71 c-8 -18 -25
-54 -38 -82 -13 -27 -37 -76 -51 -107 -15 -32 -31 -58 -36 -58 -12 0 -5 33 8
38 7 2 10 8 6 13 -3 5 0 9 6 9 6 0 9 4 5 9 -3 5 0 13 6 16 5 4 8 13 5 21 -3 8
1 17 9 20 8 4 12 10 9 15 -3 5 0 9 7 9 7 0 10 2 7 6 -3 3 5 26 18 51 13 26 21
50 18 55 -3 4 0 8 6 8 6 0 8 4 5 10 -3 5 0 7 9 4 12 -5 12 -10 1 -37z m1228
18 c4 -8 2 -17 -3 -20 -6 -4 -10 3 -10 14 0 25 6 27 13 6z m-1425 -34 c11 -7
10 -9 -3 -14 -9 -4 -14 -3 -10 2 3 5 -1 12 -7 14 -7 3 -8 6 -3 6 6 0 16 -3 23
-8z m79 -47 c-3 -3 -12 -4 -19 -1 -8 3 -5 6 6 6 11 1 17 -2 13 -5z m137 -26
c-2 -62 -7 -73 -13 -33 -7 41 -4 65 8 65 3 0 6 -15 5 -32z m-184 -8 c8 -5 11
-10 5 -10 -5 0 -17 5 -25 10 -8 5 -10 10 -5 10 6 0 17 -5 25 -10z m1364 -6 c9
-24 7 -31 -4 -14 -9 13 -10 13 -10 0 0 -13 -1 -13 -10 0 -8 12 -10 12 -10 -5
0 -15 -2 -17 -9 -6 -5 7 -13 11 -19 7 -5 -3 -12 0 -15 7 -4 10 2 13 18 9 12
-2 26 1 29 7 10 16 23 14 30 -5z m-18 -65 c17 -1 17 -2 2 -6 -10 -2 -18 -9
-18 -14 0 -6 4 -8 9 -5 11 7 2 -34 -11 -51 -10 -13 -3 -33 11 -33 5 0 13 15
18 33 l10 32 1 -42 c0 -37 -3 -41 -21 -37 -36 7 -57 67 -36 105 6 11 6 20 -1
24 -5 3 -10 12 -10 18 0 7 7 4 14 -5 7 -10 22 -19 32 -19z m-536 -1 c0 -18 -2
-20 -9 -8 -6 8 -7 18 -5 22 9 14 14 9 14 -14z m-643 -20 c-3 -8 -6 -5 -6 6 -1
11 2 17 5 13 3 -3 4 -12 1 -19z m802 -95 c0 -16 -3 -22 -6 -13 -3 8 -10 21
-16 28 -7 8 -5 12 7 12 11 0 16 -8 15 -27z m58 -45 c-9 -6 -9 -8 1 -8 8 0 10
-5 6 -12 -4 -8 -3 -10 2 -5 5 5 9 14 9 19 0 19 21 19 23 1 1 -10 4 -34 8 -54
5 -28 3 -36 -10 -36 -12 0 -13 4 -5 14 9 10 8 13 -2 14 -8 1 -21 2 -29 3 -9 0
-15 12 -15 29 -1 16 -7 33 -15 39 -12 8 -12 9 3 4 19 -6 20 -5 11 18 -3 8 -12
12 -20 9 -8 -3 -14 0 -14 7 0 6 5 8 10 5 6 -3 10 0 10 7 0 7 9 0 20 -17 14
-22 16 -31 7 -37z m339 6 c-4 -12 -2 -15 9 -10 8 3 15 1 15 -4 0 -16 -36 -12
-50 5 -11 13 -10 14 4 9 9 -3 16 -1 16 5 0 6 3 11 6 11 3 0 3 -7 0 -16z
m-1141 -34 c-3 -5 -11 -10 -16 -10 -6 0 -7 5 -4 10 3 6 11 10 16 10 6 0 7 -4
4 -10z m775 -5 c0 -8 -2 -15 -4 -15 -2 0 -6 7 -10 15 -3 8 -1 15 4 15 6 0 10
-7 10 -15z m210 11 c0 -2 -7 -6 -15 -10 -8 -3 -15 -1 -15 4 0 6 7 10 15 10 8
0 15 -2 15 -4z m-430 -25 c0 -3 11 -6 25 -6 14 0 25 5 25 10 0 6 4 4 9 -4 6
-10 13 -10 29 -2 17 9 19 8 15 -9 -3 -11 -12 -20 -19 -20 -19 0 -18 -16 2 -24
8 -3 13 -2 10 2 -3 5 4 16 15 25 19 17 19 16 13 -10 -10 -40 -13 -44 -33 -34
-11 6 -22 6 -32 -1 -11 -8 -11 -9 4 -4 9 3 17 0 17 -6 0 -6 3 -8 7 -5 3 4 15
-5 24 -20 17 -25 17 -29 2 -45 -9 -10 -13 -18 -8 -18 4 0 2 -7 -5 -15 -7 -8
-17 -12 -23 -8 -6 4 -8 0 -4 -9 3 -10 0 -15 -11 -14 -11 1 -18 -8 -20 -22 -2
-13 -8 -20 -14 -16 -8 5 -9 1 -5 -10 5 -11 3 -15 -5 -10 -8 5 -9 2 -5 -10 4
-9 3 -15 -2 -12 -5 3 -12 -5 -15 -19 -3 -13 -12 -23 -19 -21 -6 1 -9 1 -4 -1
4 -3 4 -10 1 -15 -5 -7 -2 -8 6 -3 10 6 12 4 7 -9 -4 -10 -7 -25 -7 -34 0 -13
-2 -14 -9 -4 -7 12 -12 12 -32 0 -13 -7 -28 -19 -32 -25 -12 -20 -27 -15 -27
8 0 11 20 43 44 71 66 75 130 218 106 233 -6 4 -8 16 -4 27 4 15 3 19 -7 13
-8 -3 -1 5 15 20 15 14 26 28 23 31 -2 3 -12 -2 -20 -11 -18 -17 -57 -20 -57
-4 0 5 3 8 8 5 4 -2 16 3 27 11 16 13 17 15 3 10 -23 -8 -48 2 -48 19 0 8 6
11 15 8 8 -4 15 -9 15 -13z m-793 -7 c-3 -3 -12 -4 -19 -1 -8 3 -5 6 6 6 11 1
17 -2 13 -5z m113 -8 c0 -12 21 -27 42 -30 17 -2 19 -17 7 -49 -7 -20 -9 -42
-4 -53 5 -11 7 -22 7 -26 -1 -5 3 -8 9 -8 6 0 9 -7 5 -15 -3 -8 2 -18 11 -23
10 -6 12 -12 5 -16 -7 -4 -7 -17 -2 -36 10 -36 10 -34 10 -60 0 -11 7 -20 15
-20 19 0 20 -44 0 -63 -8 -8 -12 -17 -9 -20 3 -3 -4 -8 -16 -12 -12 -4 -24 -4
-27 -1 -4 3 -7 45 -9 93 -3 105 -40 276 -66 308 -13 16 -9 45 7 45 8 0 15 -6
15 -14z m80 -13 c0 -3 -6 -3 -14 0 -7 3 -19 1 -25 -4 -6 -5 -9 -6 -6 -3 3 4 0
13 -6 20 -9 11 -6 12 20 3 17 -6 31 -13 31 -16z m-213 -20 c-13 -22 -57 -125
-57 -133 0 -5 -5 -12 -12 -16 -8 -5 -9 -2 -4 12 4 10 9 24 11 29 7 27 51 115
58 115 5 0 6 -3 4 -7z m983 -34 c0 -5 -5 -7 -10 -4 -6 4 -17 1 -25 -5 -12 -10
-15 -9 -15 4 0 10 9 16 25 16 14 0 25 -5 25 -11z m-10 -39 c0 -5 -2 -10 -4
-10 -3 0 -8 5 -11 10 -3 6 -1 10 4 10 6 0 11 -4 11 -10z m-1050 -95 c0 -12
-24 -55 -32 -55 -5 0 -2 10 7 23 8 13 12 27 8 30 -3 4 -1 7 5 7 7 0 12 -2 12
-5z m-40 -89 c0 -2 -12 -29 -26 -60 -28 -61 -44 -72 -20 -14 9 20 12 39 8 43
-4 5 -1 5 6 1 11 -6 17 5 13 27 0 4 4 7 9 7 6 0 10 -2 10 -4z m815 -166 c3 -5
2 -10 -3 -10 -6 0 -8 -10 -5 -22 l6 -23 -20 20 c-14 14 -18 24 -11 33 13 15
25 16 33 2z m418 -46 c3 -3 3 -12 0 -20 -4 -11 -9 -12 -19 -3 -8 6 -11 15 -8
20 6 10 18 12 27 3z"/>
<path d="M1430 2221 c0 -6 5 -13 12 -17 6 -4 8 -3 4 4 -3 5 0 13 6 15 8 3 6 6
-4 6 -10 1 -18 -3 -18 -8z"/>
<path d="M1358 2068 c5 -5 16 -8 23 -6 8 3 3 7 -10 11 -17 4 -21 3 -13 -5z"/>
<path d="M1615 1820 c3 -5 8 -10 11 -10 2 0 4 5 4 10 0 6 -5 10 -11 10 -5 0
-7 -4 -4 -10z"/>
<path d="M1889 1742 c-11 -14 -11 -15 1 -5 10 10 16 9 25 -4 11 -14 12 -14 12
0 0 23 -23 29 -38 9z"/>
<path d="M1482 1730 c-26 -21 -31 -80 -7 -80 19 0 19 -11 1 -36 -10 -13 -14
-15 -13 -4 1 8 -2 16 -8 18 -5 1 -10 -6 -10 -15 0 -12 8 -18 25 -18 19 0 30
10 49 46 37 70 13 129 -37 89z m29 -34 c-13 -32 -35 -36 -25 -3 6 21 25 40 31
33 2 -2 -1 -15 -6 -30z"/>
<path d="M1771 1733 c6 -7 17 -13 23 -12 7 0 6 2 -2 6 -6 2 -10 8 -8 12 3 4
-1 8 -9 8 -11 0 -12 -4 -4 -14z"/>
<path d="M1392 1731 c-7 -4 -12 -12 -11 -17 5 -17 -21 -92 -34 -97 -6 -3 3 -6
21 -6 19 -1 31 3 27 9 -5 8 7 66 22 106 6 16 -5 18 -25 5z"/>
<path d="M1728 1733 c7 -3 16 -2 19 1 4 3 -2 6 -13 5 -11 0 -14 -3 -6 -6z"/>
<path d="M1956 1721 c-3 -5 6 -8 20 -8 19 0 22 2 13 8 -18 11 -26 11 -33 0z"/>
<path d="M1584 1684 c6 -16 -22 -95 -38 -106 -13 -9 -8 -13 23 -23 19 -6 23
-4 18 8 -3 8 3 38 14 66 24 64 24 66 -2 68 -14 1 -19 -3 -15 -13z"/>
<path d="M1683 1665 c-27 -19 -30 -45 -7 -45 11 0 15 6 11 19 -3 12 1 22 9 25
27 10 14 -25 -26 -68 -22 -24 -40 -46 -40 -50 0 -3 13 -6 28 -6 30 0 52 16 52
38 0 12 -3 12 -15 2 -9 -7 -19 -10 -23 -6 -4 4 1 12 11 17 29 17 58 52 55 69
-4 21 -29 23 -55 5z"/>
<path d="M1226 1541 c-3 -4 4 -7 14 -6 27 2 33 10 10 12 -11 1 -22 -2 -24 -6z"/>
<path d="M1681 1463 c-1 -7 -13 -10 -33 -7 -29 3 -30 2 -10 -6 30 -13 28 -18
-8 -15 -17 1 -28 0 -25 -3 10 -10 65 -11 65 -1 0 6 4 8 9 4 5 -3 12 -1 16 4 3
6 13 8 23 5 14 -5 14 -4 2 4 -8 6 -17 9 -21 6 -4 -2 -10 2 -12 8 -4 9 -6 9 -6
1z"/>
<path d="M756 1434 c-5 -14 -4 -15 9 -4 17 14 19 20 6 20 -5 0 -12 -7 -15 -16z"/>
<path d="M791 1410 c0 -8 11 -23 25 -34 26 -18 26 -18 15 2 -14 27 -14 35 1
26 7 -4 8 -3 4 5 -6 9 -11 9 -21 1 -10 -8 -14 -7 -18 2 -4 9 -6 9 -6 -2z"/>
<path d="M789 1283 c-1 -10 -1 -22 0 -27 1 -5 -4 -13 -11 -17 -10 -7 -9 -9 5
-9 13 0 17 8 17 33 0 23 3 28 9 17 6 -8 7 -18 5 -22 -3 -4 0 -8 5 -8 14 0 14
6 1 31 -13 24 -30 25 -31 2z"/>
<path d="M845 1280 c-3 -6 1 -7 9 -4 18 7 21 14 7 14 -6 0 -13 -4 -16 -10z"/>
<path d="M905 1279 c-4 -6 -5 -12 -2 -15 2 -3 7 2 10 11 7 17 1 20 -8 4z"/>
<path d="M883 1253 c11 -13 14 -23 8 -27 -5 -4 -14 2 -20 11 -8 14 -12 16 -22
6 -11 -11 -10 -13 4 -13 9 0 17 -4 17 -8 0 -11 69 -12 76 -1 3 5 2 9 -3 8 -4
-1 -15 -1 -23 0 -13 1 -13 2 0 12 13 9 13 10 0 6 -8 -2 -24 3 -35 12 -20 16
-20 16 -2 -6z"/>
<path d="M819 1231 c9 -6 10 -11 2 -15 -6 -4 -16 -4 -22 0 -7 4 -6 -3 2 -17
11 -20 14 -21 17 -6 2 9 7 17 12 17 4 0 6 -10 3 -22 -3 -13 -1 -19 4 -13 14
18 59 3 48 -15 -3 -5 -1 -11 4 -14 5 -4 12 -2 15 3 7 10 -71 91 -88 91 -6 0
-6 -4 3 -9z"/>
<path d="M661 1182 c-1 -8 -6 -10 -13 -6 -8 5 -7 1 2 -10 15 -19 26 -7 17 17
-4 9 -6 9 -6 -1z"/>
<path d="M680 1128 c0 -9 -7 -21 -15 -28 -19 -16 -19 -26 1 -34 10 -4 15 0 13
12 -1 9 1 25 6 35 4 10 5 21 1 24 -3 4 -6 -1 -6 -9z"/>
<path d="M573 1350 c1 -11 4 -20 8 -20 10 0 19 27 12 34 -12 12 -22 5 -20 -14z"/>
<path d="M635 1320 c-3 -5 -1 -10 4 -10 6 0 11 5 11 10 0 6 -2 10 -4 10 -3 0
-8 -4 -11 -10z"/>
<path d="M540 1306 c7 -7 13 -7 20 0 6 6 3 10 -10 10 -13 0 -16 -4 -10 -10z"/>
<path d="M1236 1238 c3 -5 10 -6 15 -3 13 9 11 12 -6 12 -8 0 -12 -4 -9 -9z"/>
<path d="M1330 1231 c0 -6 4 -13 10 -16 6 -3 7 1 4 9 -7 18 -14 21 -14 7z"/>
<path d="M1189 1215 c-1 -3 -2 -8 -3 -12 -1 -5 -5 -13 -9 -20 -4 -6 -3 -14 3
-18 12 -7 11 -8 14 28 3 23 -1 38 -5 22z"/>
<path d="M1225 1200 c-3 -6 1 -7 9 -4 18 7 21 14 7 14 -6 0 -13 -4 -16 -10z"/>
<path d="M1316 1202 c-3 -5 1 -9 9 -9 8 0 12 4 9 9 -3 4 -7 8 -9 8 -2 0 -6 -4
-9 -8z"/>
<path d="M1785 1190 c-7 -11 22 -26 32 -16 4 3 -1 6 -11 6 -9 0 -14 5 -11 10
3 6 4 10 1 10 -3 0 -8 -5 -11 -10z"/>
<path d="M1300 1166 c0 -2 7 -6 15 -10 8 -3 15 -1 15 4 0 6 -7 10 -15 10 -8 0
-15 -2 -15 -4z"/>
<path d="M1951 1153 c6 -7 17 -13 23 -12 7 0 6 2 -2 6 -6 2 -10 8 -8 12 3 4
-1 8 -9 8 -11 0 -12 -4 -4 -14z"/>
<path d="M1891 1133 c0 -11 3 -13 6 -5 2 6 10 9 15 6 7 -4 8 -2 4 4 -11 18
-26 14 -25 -5z"/>
<path d="M1998 1138 c5 -5 16 -8 23 -6 8 3 3 7 -10 11 -17 4 -21 3 -13 -5z"/>
<path d="M1172 1128 c-7 -9 -6 -17 3 -25 10 -9 17 -7 31 10 17 19 17 20 1 8
-9 -8 -21 -11 -24 -7 -4 4 -1 11 7 16 8 6 10 10 4 10 -6 0 -16 -6 -22 -12z"/>
<path d="M1806 1125 c10 -8 26 -14 34 -14 9 0 4 6 -10 14 -33 19 -49 19 -24 0z"/>
<path d="M1277 1096 c-4 -9 -3 -14 2 -11 5 3 13 -4 16 -16 4 -11 9 -18 12 -16
2 3 -2 17 -10 32 -12 23 -15 25 -20 11z"/>
<path d="M1410 1106 c0 -2 7 -6 15 -10 8 -3 15 -1 15 4 0 6 -7 10 -15 10 -8 0
-15 -2 -15 -4z"/>
<path d="M1870 1101 c0 -6 4 -12 8 -15 5 -3 9 1 9 9 0 8 -4 15 -9 15 -4 0 -8
-4 -8 -9z"/>
<path d="M1166 1078 c7 -30 -3 -36 -26 -15 -12 10 -12 9 -2 -4 6 -9 9 -19 5
-22 -3 -4 -1 -7 5 -7 6 0 10 -6 8 -12 -1 -7 -1 -9 2 -5 2 4 11 2 20 -5 14 -11
14 -9 0 8 -13 15 -15 23 -6 32 8 8 9 17 0 34 -11 22 -11 22 -6 -4z"/>
<path d="M1036 1068 c-16 -22 -13 -39 7 -37 8 0 8 2 -1 6 -10 4 -10 10 3 29
19 30 12 32 -9 2z"/>
<path d="M1196 1073 c-6 -14 -5 -15 5 -6 7 7 10 15 7 18 -3 3 -9 -2 -12 -12z"/>
<path d="M1240 1080 c-8 -5 -11 -10 -6 -10 5 0 1 -9 -9 -20 -15 -16 -15 -20
-3 -15 8 3 20 17 26 31 13 27 13 27 -8 14z"/>
<path d="M1943 1083 c4 -5 -2 -19 -12 -30 -19 -20 -19 -20 10 -19 29 1 37 10
19 21 -6 4 -8 10 -5 15 3 5 0 12 -6 16 -7 4 -9 3 -6 -3z"/>
<path d="M2050 1072 c0 -7 -4 -10 -10 -7 -5 3 -10 -1 -10 -9 0 -9 -7 -16 -15
-16 -12 0 -13 -3 -3 -19 6 -11 18 -17 26 -13 11 4 13 1 7 -8 -5 -9 -4 -11 4
-6 9 6 9 11 1 21 -8 9 -7 17 4 27 9 10 11 20 5 29 -7 11 -9 11 -9 1z"/>
<path d="M1890 1059 c0 -5 -5 -7 -12 -3 -7 4 -8 3 -4 -5 6 -9 11 -9 22 0 17
14 18 19 4 19 -5 0 -10 -5 -10 -11z"/>
<path d="M1378 1043 c7 -3 16 -2 19 1 4 3 -2 6 -13 5 -11 0 -14 -3 -6 -6z"/>
<path d="M1282 1003 c12 -13 24 -23 27 -23 3 0 0 5 -6 11 -6 6 -9 17 -6 25 3
8 -3 12 -16 11 -21 -1 -21 -1 1 -24z"/>
<path d="M1880 1020 c-8 -5 -12 -12 -9 -15 4 -3 12 1 19 10 14 17 11 19 -10 5z"/>
<path d="M1355 1009 c-4 -6 -5 -12 -2 -15 2 -3 7 2 10 11 7 17 1 20 -8 4z"/>
<path d="M1913 1007 c-3 -6 -1 -7 5 -3 5 3 12 1 14 -6 3 -8 6 -7 10 3 7 17
-19 22 -29 6z"/>
<path d="M1982 1011 c-8 -4 -13 -11 -13 -15 0 -3 -2 -13 -6 -22 -3 -8 0 -21 6
-27 9 -9 11 -8 5 6 -5 13 -2 16 10 11 9 -3 16 -1 16 5 0 6 -5 11 -10 11 -7 0
-7 6 0 20 12 22 11 23 -8 11z"/>
<path d="M1012 984 c-10 -11 -10 -14 1 -14 8 0 20 -7 27 -15 7 -8 18 -15 24
-15 6 0 3 5 -7 11 -10 6 -21 19 -25 29 -6 15 -9 16 -20 4z"/>
<path d="M1272 974 c10 -10 20 -16 22 -13 3 3 -5 11 -17 18 -21 13 -21 12 -5
-5z"/>
<path d="M1875 980 c3 -5 8 -10 11 -10 2 0 4 5 4 10 0 6 -5 10 -11 10 -5 0 -7
-4 -4 -10z"/>
<path d="M1121 966 c-13 -16 -11 -67 3 -78 6 -3 11 -24 12 -45 3 -46 20 -93
34 -93 5 0 10 -5 10 -11 0 -5 -6 -7 -12 -4 -7 4 -3 -2 10 -13 12 -11 22 -26
22 -34 -1 -8 -4 -7 -11 5 -5 9 -20 17 -31 17 -12 0 -19 -2 -17 -4 2 -2 7 -4
10 -3 4 1 15 -6 26 -15 10 -10 28 -19 39 -21 10 -1 25 -6 32 -10 7 -5 12 -4
12 2 0 6 -5 11 -11 11 -8 0 -8 4 0 14 14 17 51 28 51 15 0 -11 47 -12 53 -1 7
12 -13 72 -23 72 -6 0 -10 -4 -10 -10 0 -5 5 -10 10 -10 7 0 7 -7 -1 -21 -8
-16 -13 -18 -19 -9 -5 7 -6 20 -3 28 5 12 3 12 -15 1 -19 -12 -23 -11 -36 6
-17 24 -12 33 8 16 11 -9 16 -9 22 0 4 7 3 9 -3 6 -15 -9 -36 19 -27 35 6 10
5 11 -7 1 -12 -10 -18 -10 -28 0 -7 6 -4 -4 6 -23 23 -41 25 -67 6 -67 -10 0
-10 3 0 15 10 13 9 14 -10 4 -19 -11 -25 -8 -46 20 -30 40 -41 74 -27 83 7 4
7 12 0 25 -7 13 -6 19 5 23 7 3 16 1 19 -6 3 -9 5 -9 5 0 1 6 -3 15 -9 18 -5
3 -10 14 -10 23 0 13 2 13 15 -4 13 -18 14 -18 8 5 -5 19 -3 23 9 19 8 -4 21
-3 28 2 9 6 7 11 -10 20 -12 7 -20 8 -16 2 3 -5 -1 -12 -9 -16 -8 -3 -14 0
-12 7 3 17 -38 20 -52 3z m27 -16 c-14 -22 -24 -19 -15 5 4 8 11 15 17 15 6 0
6 -7 -2 -20z"/>
<path d="M1246 967 c3 -10 9 -15 12 -12 3 3 0 11 -7 18 -10 9 -11 8 -5 -6z"/>
<path d="M1930 969 c0 -5 5 -7 10 -4 6 3 10 8 10 11 0 2 -4 4 -10 4 -5 0 -10
-5 -10 -11z"/>
<path d="M1283 943 c4 -6 2 -13 -5 -15 -8 -3 -6 -6 4 -10 17 -7 19 15 3 29 -4
4 -5 3 -2 -4z"/>
<path d="M1906 940 c6 -8 10 -23 8 -33 -1 -11 1 -16 4 -12 4 4 8 11 8 16 1 5
2 12 3 17 1 4 10 -4 21 -18 10 -14 22 -21 27 -17 4 5 0 13 -10 18 -9 6 -17 17
-17 24 0 8 -4 15 -10 15 -5 0 -10 -5 -10 -11 0 -8 -6 -7 -17 2 -16 12 -17 12
-7 -1z"/>
<path d="M997 933 c-4 -3 -7 -11 -7 -17 0 -6 5 -5 12 2 6 6 9 14 7 17 -3 3 -9
2 -12 -2z"/>
<path d="M1430 925 c21 -12 22 -14 6 -15 -11 0 -17 -3 -13 -6 3 -4 14 -3 24 0
17 7 17 8 -1 22 -11 8 -25 14 -30 14 -6 -1 0 -7 14 -15z"/>
<path d="M1355 921 c-6 -11 13 -26 22 -17 4 3 0 6 -8 6 -11 0 -11 2 1 10 9 6
10 10 3 10 -6 0 -14 -4 -18 -9z"/>
<path d="M1563 908 c11 -10 24 -18 31 -18 6 0 5 4 -3 9 -11 7 -10 11 5 20 11
6 14 11 9 11 -6 0 -16 -5 -23 -12 -7 -7 -16 -8 -25 -2 -7 5 -4 1 6 -8z"/>
<path d="M1210 901 c0 -5 5 -13 10 -16 6 -3 10 -2 10 4 0 5 -4 13 -10 16 -5 3
-10 2 -10 -4z"/>
<path d="M1248 869 c2 -17 16 -42 30 -56 14 -14 22 -18 19 -9 -4 9 -2 16 3 16
6 0 10 -9 10 -21 0 -11 5 -17 10 -14 7 4 7 12 0 25 -7 13 -7 21 0 25 13 8 13
25 -1 25 -5 0 -8 -4 -4 -9 3 -6 -3 -15 -14 -20 -16 -9 -21 -5 -35 29 -19 48
-24 50 -18 9z"/>
<path d="M1270 889 c0 -6 6 -9 14 -6 10 4 12 0 8 -15 -4 -18 -3 -19 16 -7 19
12 19 14 4 26 -21 15 -42 17 -42 2z"/>
<path d="M1796 885 c4 -8 8 -15 10 -15 2 0 4 7 4 15 0 8 -4 15 -10 15 -5 0 -7
-7 -4 -15z"/>
<path d="M1200 876 c14 -18 13 -18 -10 -12 -17 5 -21 4 -11 -2 7 -5 17 -15 21
-22 5 -8 9 -5 13 9 3 12 -2 25 -12 33 -15 12 -15 11 -1 -6z"/>
<path d="M1478 878 c-4 -9 4 -21 22 -31 24 -14 28 -15 26 -2 -1 8 -6 18 -11
22 -4 4 -5 2 -1 -4 4 -7 2 -13 -4 -13 -6 0 -14 10 -19 22 -6 16 -9 18 -13 6z"/>
<path d="M1906 872 c11 -9 19 -24 17 -32 -4 -13 -3 -13 6 0 16 22 14 26 -16
39 -28 11 -28 11 -7 -7z"/>
<path d="M1356 866 c3 -9 2 -16 -2 -16 -5 0 -10 -16 -11 -35 -2 -26 0 -33 11
-29 8 3 17 1 21 -5 3 -6 10 -11 16 -11 5 0 1 8 -8 18 -10 11 -22 17 -27 14 -5
-3 -5 1 -1 9 13 19 15 58 4 64 -5 3 -6 -1 -3 -9z"/>
<path d="M1430 870 c0 -5 5 -10 10 -10 6 0 10 5 10 10 0 6 -4 10 -10 10 -5 0
-10 -4 -10 -10z"/>
<path d="M1630 870 c-8 -5 -13 -10 -10 -11 3 0 12 -2 21 -4 9 -1 16 4 16 11 0
16 -6 17 -27 4z"/>
<path d="M1815 859 c-4 -6 -5 -12 -2 -15 2 -3 7 2 10 11 7 17 1 20 -8 4z"/>
<path d="M1865 853 c-6 -2 -9 -19 -6 -41 l5 -37 7 40 c8 45 8 44 -6 38z"/>
<path d="M1075 840 c3 -5 8 -10 11 -10 2 0 4 5 4 10 0 6 -5 10 -11 10 -5 0 -7
-4 -4 -10z"/>
<path d="M1169 848 c-8 -28 -5 -48 8 -59 15 -12 15 -12 6 5 -6 10 -8 27 -6 37
3 11 3 19 -1 19 -3 0 -6 -1 -7 -2z"/>
<path d="M1430 840 c0 -5 5 -10 10 -10 6 0 10 5 10 10 0 6 -4 10 -10 10 -5 0
-10 -4 -10 -10z"/>
<path d="M1550 839 c0 -5 5 -7 10 -4 6 3 10 8 10 11 0 2 -4 4 -10 4 -5 0 -10
-5 -10 -11z"/>
<path d="M1741 824 c0 -11 3 -14 6 -6 3 7 2 16 -1 19 -3 4 -6 -2 -5 -13z"/>
<path d="M1025 819 c-4 -6 -4 -13 -1 -16 3 -4 6 -1 6 6 0 7 5 9 12 5 7 -4 8
-3 4 4 -9 15 -13 15 -21 1z"/>
<path d="M1797 813 c6 -15 4 -16 -8 -6 -13 10 -16 10 -16 -2 0 -8 4 -12 9 -9
4 3 8 0 8 -6 0 -17 17 -3 23 20 3 13 0 20 -9 20 -9 0 -11 -6 -7 -17z"/>
<path d="M1509 808 c17 -22 27 -23 35 -2 5 13 4 14 -7 6 -10 -9 -17 -8 -27 1
-12 10 -12 9 -1 -5z"/>
<path d="M1890 788 c0 -21 -4 -38 -10 -38 -5 0 -10 -5 -10 -11 0 -8 4 -8 13 0
10 8 17 7 25 -1 9 -9 12 -9 12 0 0 7 -4 12 -9 12 -6 0 -9 9 -8 20 1 13 5 16
11 10 6 -6 16 -10 24 -10 11 0 11 2 0 13 -7 7 -17 14 -22 14 -5 1 -13 7 -17
15 -6 8 -9 0 -9 -24z"/>
<path d="M1431 797 c-1 -4 6 -21 14 -38 12 -22 13 -34 5 -49 -6 -11 -7 -20 -2
-20 5 0 7 -15 6 -32 l-3 -33 9 35 c16 59 19 80 11 80 -4 0 -15 15 -24 33 -8
17 -16 28 -16 24z"/>
<path d="M1414 771 c3 -17 0 -25 -15 -28 -10 -3 -19 -10 -19 -15 0 -5 -5 -6
-11 -2 -8 4 -9 0 -4 -15 4 -12 2 -21 -4 -21 -6 0 -11 -4 -11 -10 0 -6 3 -9 8
-9 4 1 14 1 22 0 11 -1 11 -4 2 -13 -7 -7 -12 -16 -12 -22 0 -5 6 -1 14 9 8
11 12 23 10 27 -2 4 0 9 6 13 5 3 10 2 10 -4 0 -6 6 -8 13 -5 16 6 17 51 1 51
-7 0 -10 -7 -7 -16 5 -13 4 -14 -8 -3 -12 11 -11 15 4 26 14 11 15 18 7 37
l-11 24 5 -24z"/>
<path d="M1740 783 c0 -6 5 -15 11 -19 8 -5 8 -8 0 -14 -9 -5 -8 -10 3 -19 23
-19 27 3 5 35 -10 16 -19 24 -19 17z"/>
<path d="M1825 780 c-3 -6 1 -7 9 -4 18 7 21 14 7 14 -6 0 -13 -4 -16 -10z"/>
<path d="M1203 761 c0 -11 5 -18 9 -15 4 3 5 11 1 19 -7 21 -12 19 -10 -4z"/>
<path d="M2010 759 c0 -5 5 -7 10 -4 6 3 10 8 10 11 0 2 -4 4 -10 4 -5 0 -10
-5 -10 -11z"/>
<path d="M1006 743 c2 -7 -5 -17 -15 -23 -23 -12 -34 -37 -20 -45 5 -4 9 -3 8
2 -1 4 -1 15 0 23 1 12 4 12 12 -3 5 -9 8 -21 4 -26 -3 -5 -1 -12 3 -15 5 -3
8 9 7 27 -2 34 11 60 26 52 4 -3 5 -13 2 -23 -4 -13 -3 -14 6 -6 15 14 3 47
-15 40 -7 -3 -15 -2 -17 2 -2 4 -2 1 -1 -5z"/>
<path d="M1493 748 c3 -9 2 -18 -3 -20 -5 -2 -2 -12 7 -23 15 -20 15 -20 8 2
-5 18 -3 22 9 17 11 -4 16 0 16 12 0 9 -3 14 -7 11 -3 -4 -13 -1 -21 6 -13 10
-15 9 -9 -5z"/>
<path d="M1797 735 c6 -11 8 -26 6 -32 -3 -7 0 -13 6 -13 6 0 11 -7 11 -16 0
-8 5 -12 10 -9 6 4 8 11 5 16 -3 5 0 6 8 3 8 -3 18 0 22 5 3 6 11 9 16 6 5 -4
9 -1 9 4 0 6 -7 11 -15 11 -7 0 -19 8 -25 18 -9 15 -10 14 -5 -5 5 -18 2 -23
-14 -23 -13 0 -18 5 -15 13 3 8 -3 20 -12 28 -16 13 -16 12 -7 -6z"/>
<path d="M1056 702 c-3 -5 1 -9 9 -9 8 0 12 4 9 9 -3 4 -7 8 -9 8 -2 0 -6 -4
-9 -8z"/>
<path d="M1095 700 c-3 -5 -1 -10 4 -10 6 0 11 5 11 10 0 6 -2 10 -4 10 -3 0
-8 -4 -11 -10z"/>
<path d="M1527 703 c-3 -3 -3 -11 -1 -17 3 -7 -2 -13 -11 -14 -8 -1 -22 -3
-30 -4 -8 -1 -15 -5 -15 -10 0 -5 8 -8 18 -6 9 1 23 -1 31 -6 9 -6 12 -5 7 2
-3 6 -2 13 4 17 5 3 10 1 10 -6 0 -9 3 -9 14 0 20 16 16 47 -5 48 -9 1 -19 -1
-22 -4z m31 -21 c2 -7 -1 -12 -8 -12 -6 0 -9 4 -6 9 4 5 1 12 -4 14 -6 3 -5 4
2 3 6 -1 14 -8 16 -14z"/>
<path d="M1267 679 c7 -7 15 -10 18 -7 3 3 -2 9 -12 12 -14 6 -15 5 -6 -5z"/>
<path d="M1070 668 c0 -4 4 -8 9 -8 6 0 12 4 15 8 3 5 -1 9 -9 9 -8 0 -15 -4
-15 -9z"/>
<path d="M1317 669 c7 -7 15 -10 18 -7 3 3 -2 9 -12 12 -14 6 -15 5 -6 -5z"/>
<path d="M1870 676 c0 -2 7 -7 16 -10 8 -3 12 -2 9 4 -6 10 -25 14 -25 6z"/>
<path d="M680 649 c0 -5 5 -7 10 -4 6 3 10 8 10 11 0 2 -4 4 -10 4 -5 0 -10
-5 -10 -11z"/>
<path d="M1266 643 c-6 -14 -5 -15 5 -6 7 7 10 15 7 18 -3 3 -9 -2 -12 -12z"/>
<path d="M1342 644 c-7 -8 -8 -14 -3 -14 10 0 25 19 20 25 -2 1 -10 -3 -17
-11z"/>
<path d="M1413 653 c4 -6 2 -13 -5 -15 -8 -3 -6 -6 4 -10 17 -7 19 15 3 29 -4
4 -5 3 -2 -4z"/>
<path d="M1870 650 c0 -5 5 -10 11 -10 5 0 7 5 4 10 -3 6 -8 10 -11 10 -2 0
-4 -4 -4 -10z"/>
<path d="M925 633 c-18 -14 -18 -15 -2 -9 10 3 28 6 38 6 11 0 17 5 14 10 -9
14 -27 12 -50 -7z"/>
<path d="M1018 633 c7 -3 16 -2 19 1 4 3 -2 6 -13 5 -11 0 -14 -3 -6 -6z"/>
<path d="M1475 630 c-3 -6 1 -7 9 -4 18 7 21 14 7 14 -6 0 -13 -4 -16 -10z"/>
<path d="M1942 516 c1 -14 6 -22 10 -20 5 3 5 10 2 16 -4 6 0 14 7 19 11 7 10
9 -3 9 -13 0 -17 -7 -16 -24z"/>
<path d="M1080 1259 c-10 -6 -11 -9 -2 -9 6 0 12 -5 12 -11 0 -5 -5 -7 -12 -3
-7 4 -8 3 -4 -4 10 -16 14 -15 26 7 12 23 1 34 -20 20z"/>
<path d="M690 989 c0 -5 5 -7 10 -4 6 3 10 8 10 11 0 2 -4 4 -10 4 -5 0 -10
-5 -10 -11z"/>
<path d="M646 938 c3 -5 10 -6 15 -3 13 9 11 12 -6 12 -8 0 -12 -4 -9 -9z"/>
<path d="M730 739 c0 -5 5 -7 10 -4 6 3 10 8 10 11 0 2 -4 4 -10 4 -5 0 -10
-5 -10 -11z"/>
<path d="M2106 965 c4 -8 11 -15 16 -15 6 0 5 6 -2 15 -7 8 -14 15 -16 15 -2
0 -1 -7 2 -15z"/>
<path d="M2090 750 c-8 -26 -7 -41 2 -32 6 6 8 16 5 24 -3 7 -6 11 -7 8z"/>
<path d="M1815 590 c-3 -5 -1 -10 4 -10 6 0 11 5 11 10 0 6 -2 10 -4 10 -3 0
-8 -4 -11 -10z"/>
<path d="M1623 448 c-6 -7 -15 -26 -18 -41 l-8 -29 27 27 c18 18 24 31 18 41
-7 13 -10 13 -19 2z"/>
</g>
</svg>
